<mxfile host="Electron" agent="Mozilla/5.0 (Macintosh; Intel Mac OS X 10_15_7) AppleWebKit/537.36 (KHTML, like Gecko) draw.io/26.2.2 Chrome/134.0.6998.178 Electron/35.1.2 Safari/537.36" version="26.2.2">
  <diagram name="Page-1" id="-H_mtQnk-PTXWXPvYvuk">
    <mxGraphModel dx="1621" dy="997" grid="1" gridSize="10" guides="1" tooltips="1" connect="1" arrows="1" fold="1" page="1" pageScale="1" pageWidth="1169" pageHeight="827" math="0" shadow="0">
      <root>
        <mxCell id="0" />
        <mxCell id="1" parent="0" />
        <mxCell id="p9kjgCkocBYD14w4LpJB-18" value="&lt;span style=&quot;color: rgba(0, 0, 0, 0); font-family: monospace; font-size: 0px; text-align: start; text-wrap-mode: nowrap;&quot;&gt;%3CmxGraphModel%3E%3Croot%3E%3CmxCell%20id%3D%220%22%2F%3E%3CmxCell%20id%3D%221%22%20parent%3D%220%22%2F%3E%3CmxCell%20id%3D%222%22%20value%3D%22rs2%22%20style%3D%22text%3Bhtml%3D1%3Balign%3Dcenter%3BverticalAlign%3Dmiddle%3BwhiteSpace%3Dwrap%3Brounded%3D0%3B%22%20vertex%3D%221%22%20parent%3D%221%22%3E%3CmxGeometry%20x%3D%22440%22%20y%3D%22390%22%20width%3D%2260%22%20height%3D%2230%22%20as%3D%22geometry%22%2F%3E%3C%2FmxCell%3E%3C%2Froot%3E%3C%2FmxGraphModel%3E&lt;/span&gt;" style="rounded=1;whiteSpace=wrap;html=1;" parent="1" vertex="1">
          <mxGeometry x="170" y="600" width="440" height="320" as="geometry" />
        </mxCell>
        <mxCell id="ypXTvWuPCxLjXO1J6HbK-5" value="secondary" style="shape=cylinder3;whiteSpace=wrap;html=1;boundedLbl=1;backgroundOutline=1;size=15;" parent="1" vertex="1">
          <mxGeometry x="335" y="820" width="110" height="80" as="geometry" />
        </mxCell>
        <mxCell id="ypXTvWuPCxLjXO1J6HbK-4" value="secondary" style="shape=cylinder3;whiteSpace=wrap;html=1;boundedLbl=1;backgroundOutline=1;size=15;" parent="1" vertex="1">
          <mxGeometry x="335" y="770" width="110" height="80" as="geometry" />
        </mxCell>
        <mxCell id="ypXTvWuPCxLjXO1J6HbK-3" value="primary" style="shape=cylinder3;whiteSpace=wrap;html=1;boundedLbl=1;backgroundOutline=1;size=15;" parent="1" vertex="1">
          <mxGeometry x="335" y="720" width="110" height="80" as="geometry" />
        </mxCell>
        <mxCell id="zA23MoTUsTF4_91t8viU-2" value="&lt;b&gt;shard1-2&lt;/b&gt;" style="shape=cylinder3;whiteSpace=wrap;html=1;boundedLbl=1;backgroundOutline=1;size=15;" parent="1" vertex="1">
          <mxGeometry x="335" y="670" width="110" height="80" as="geometry" />
        </mxCell>
        <mxCell id="ypXTvWuPCxLjXO1J6HbK-12" style="edgeStyle=orthogonalEdgeStyle;rounded=0;orthogonalLoop=1;jettySize=auto;html=1;exitX=0.25;exitY=1;exitDx=0;exitDy=0;entryX=0.5;entryY=0;entryDx=0;entryDy=0;" parent="1" source="zA23MoTUsTF4_91t8viU-3" target="ypXTvWuPCxLjXO1J6HbK-1" edge="1">
          <mxGeometry relative="1" as="geometry" />
        </mxCell>
        <mxCell id="ypXTvWuPCxLjXO1J6HbK-14" style="edgeStyle=orthogonalEdgeStyle;rounded=0;orthogonalLoop=1;jettySize=auto;html=1;exitX=0.75;exitY=1;exitDx=0;exitDy=0;entryX=0.5;entryY=0;entryDx=0;entryDy=0;" parent="1" source="zA23MoTUsTF4_91t8viU-3" target="ypXTvWuPCxLjXO1J6HbK-13" edge="1">
          <mxGeometry relative="1" as="geometry" />
        </mxCell>
        <mxCell id="zA23MoTUsTF4_91t8viU-3" value="&lt;font style=&quot;font-size: 18px;&quot;&gt;pymongo-api&lt;/font&gt;" style="rounded=1;whiteSpace=wrap;html=1;" parent="1" vertex="1">
          <mxGeometry x="560" y="120" width="160" height="60" as="geometry" />
        </mxCell>
        <mxCell id="ypXTvWuPCxLjXO1J6HbK-19" style="edgeStyle=orthogonalEdgeStyle;rounded=0;orthogonalLoop=1;jettySize=auto;html=1;exitX=1;exitY=0.5;exitDx=0;exitDy=0;entryX=0;entryY=0.5;entryDx=0;entryDy=0;" parent="1" source="ypXTvWuPCxLjXO1J6HbK-1" target="ypXTvWuPCxLjXO1J6HbK-16" edge="1">
          <mxGeometry relative="1" as="geometry" />
        </mxCell>
        <mxCell id="ypXTvWuPCxLjXO1J6HbK-1" value="&lt;font style=&quot;font-size: 18px;&quot;&gt;router&lt;/font&gt;" style="rounded=1;whiteSpace=wrap;html=1;arcSize=26;" parent="1" vertex="1">
          <mxGeometry x="390" y="240" width="140" height="50" as="geometry" />
        </mxCell>
        <mxCell id="ypXTvWuPCxLjXO1J6HbK-11" style="edgeStyle=orthogonalEdgeStyle;rounded=0;orthogonalLoop=1;jettySize=auto;html=1;exitX=0.5;exitY=1;exitDx=0;exitDy=0;entryX=1;entryY=0.5;entryDx=0;entryDy=0;" parent="1" source="ypXTvWuPCxLjXO1J6HbK-13" target="p_O2uBfT2jUDZnPNE2_V-2" edge="1">
          <mxGeometry relative="1" as="geometry">
            <mxPoint x="820" y="400" as="targetPoint" />
          </mxGeometry>
        </mxCell>
        <mxCell id="ypXTvWuPCxLjXO1J6HbK-20" style="edgeStyle=orthogonalEdgeStyle;rounded=0;orthogonalLoop=1;jettySize=auto;html=1;exitX=0;exitY=0.5;exitDx=0;exitDy=0;entryX=1;entryY=0.5;entryDx=0;entryDy=0;" parent="1" source="ypXTvWuPCxLjXO1J6HbK-13" target="ypXTvWuPCxLjXO1J6HbK-16" edge="1">
          <mxGeometry relative="1" as="geometry" />
        </mxCell>
        <mxCell id="ypXTvWuPCxLjXO1J6HbK-13" value="&lt;font style=&quot;font-size: 18px;&quot;&gt;router&lt;/font&gt;" style="rounded=1;whiteSpace=wrap;html=1;arcSize=26;" parent="1" vertex="1">
          <mxGeometry x="750" y="240" width="140" height="50" as="geometry" />
        </mxCell>
        <mxCell id="ypXTvWuPCxLjXO1J6HbK-16" value="&lt;font style=&quot;font-size: 18px;&quot;&gt;configServer&lt;/font&gt;" style="rounded=1;whiteSpace=wrap;html=1;arcSize=26;" parent="1" vertex="1">
          <mxGeometry x="570" y="240" width="140" height="50" as="geometry" />
        </mxCell>
        <mxCell id="ypXTvWuPCxLjXO1J6HbK-18" style="edgeStyle=orthogonalEdgeStyle;rounded=0;orthogonalLoop=1;jettySize=auto;html=1;exitX=0.5;exitY=1;exitDx=0;exitDy=0;entryX=0;entryY=0.5;entryDx=0;entryDy=0;" parent="1" source="ypXTvWuPCxLjXO1J6HbK-1" edge="1" target="p_O2uBfT2jUDZnPNE2_V-2">
          <mxGeometry relative="1" as="geometry">
            <mxPoint x="460" y="420" as="targetPoint" />
          </mxGeometry>
        </mxCell>
        <mxCell id="p9kjgCkocBYD14w4LpJB-1" value="secondary" style="shape=cylinder3;whiteSpace=wrap;html=1;boundedLbl=1;backgroundOutline=1;size=15;" parent="1" vertex="1">
          <mxGeometry x="200" y="820" width="110" height="80" as="geometry" />
        </mxCell>
        <mxCell id="p9kjgCkocBYD14w4LpJB-2" value="secondary" style="shape=cylinder3;whiteSpace=wrap;html=1;boundedLbl=1;backgroundOutline=1;size=15;" parent="1" vertex="1">
          <mxGeometry x="200" y="770" width="110" height="80" as="geometry" />
        </mxCell>
        <mxCell id="p9kjgCkocBYD14w4LpJB-3" value="primary" style="shape=cylinder3;whiteSpace=wrap;html=1;boundedLbl=1;backgroundOutline=1;size=15;" parent="1" vertex="1">
          <mxGeometry x="200" y="720" width="110" height="80" as="geometry" />
        </mxCell>
        <mxCell id="p9kjgCkocBYD14w4LpJB-4" value="&lt;b&gt;shard1-1&lt;/b&gt;" style="shape=cylinder3;whiteSpace=wrap;html=1;boundedLbl=1;backgroundOutline=1;size=15;" parent="1" vertex="1">
          <mxGeometry x="200" y="670" width="110" height="80" as="geometry" />
        </mxCell>
        <mxCell id="p9kjgCkocBYD14w4LpJB-5" value="secondary" style="shape=cylinder3;whiteSpace=wrap;html=1;boundedLbl=1;backgroundOutline=1;size=15;" parent="1" vertex="1">
          <mxGeometry x="470" y="820" width="110" height="80" as="geometry" />
        </mxCell>
        <mxCell id="p9kjgCkocBYD14w4LpJB-6" value="secondary" style="shape=cylinder3;whiteSpace=wrap;html=1;boundedLbl=1;backgroundOutline=1;size=15;" parent="1" vertex="1">
          <mxGeometry x="470" y="770" width="110" height="80" as="geometry" />
        </mxCell>
        <mxCell id="p9kjgCkocBYD14w4LpJB-7" value="primary" style="shape=cylinder3;whiteSpace=wrap;html=1;boundedLbl=1;backgroundOutline=1;size=15;" parent="1" vertex="1">
          <mxGeometry x="470" y="720" width="110" height="80" as="geometry" />
        </mxCell>
        <mxCell id="p9kjgCkocBYD14w4LpJB-8" value="&lt;b&gt;shard1-3&lt;/b&gt;" style="shape=cylinder3;whiteSpace=wrap;html=1;boundedLbl=1;backgroundOutline=1;size=15;" parent="1" vertex="1">
          <mxGeometry x="470" y="670" width="110" height="80" as="geometry" />
        </mxCell>
        <mxCell id="p9kjgCkocBYD14w4LpJB-19" value="&lt;span style=&quot;color: rgba(0, 0, 0, 0.85); font-family: &amp;quot;YS Text&amp;quot;, sans-serif; font-size: 18px; text-align: left; white-space-collapse: preserve-breaks; background-color: rgb(255, 255, 255);&quot;&gt;replicaset 1&lt;/span&gt;" style="text;html=1;align=center;verticalAlign=middle;whiteSpace=wrap;rounded=0;" parent="1" vertex="1">
          <mxGeometry x="320" y="620" width="130" height="30" as="geometry" />
        </mxCell>
        <mxCell id="p9kjgCkocBYD14w4LpJB-20" value="&lt;span style=&quot;color: rgba(0, 0, 0, 0); font-family: monospace; font-size: 0px; text-align: start; text-wrap-mode: nowrap;&quot;&gt;%3CmxGraphModel%3E%3Croot%3E%3CmxCell%20id%3D%220%22%2F%3E%3CmxCell%20id%3D%221%22%20parent%3D%220%22%2F%3E%3CmxCell%20id%3D%222%22%20value%3D%22rs2%22%20style%3D%22text%3Bhtml%3D1%3Balign%3Dcenter%3BverticalAlign%3Dmiddle%3BwhiteSpace%3Dwrap%3Brounded%3D0%3B%22%20vertex%3D%221%22%20parent%3D%221%22%3E%3CmxGeometry%20x%3D%22440%22%20y%3D%22390%22%20width%3D%2260%22%20height%3D%2230%22%20as%3D%22geometry%22%2F%3E%3C%2FmxCell%3E%3C%2Froot%3E%3C%2FmxGraphModel%3E&lt;/span&gt;" style="rounded=1;whiteSpace=wrap;html=1;" parent="1" vertex="1">
          <mxGeometry x="750" y="600" width="440" height="320" as="geometry" />
        </mxCell>
        <mxCell id="p9kjgCkocBYD14w4LpJB-21" value="secondary" style="shape=cylinder3;whiteSpace=wrap;html=1;boundedLbl=1;backgroundOutline=1;size=15;" parent="1" vertex="1">
          <mxGeometry x="915" y="820" width="110" height="80" as="geometry" />
        </mxCell>
        <mxCell id="p9kjgCkocBYD14w4LpJB-22" value="secondary" style="shape=cylinder3;whiteSpace=wrap;html=1;boundedLbl=1;backgroundOutline=1;size=15;" parent="1" vertex="1">
          <mxGeometry x="915" y="770" width="110" height="80" as="geometry" />
        </mxCell>
        <mxCell id="p9kjgCkocBYD14w4LpJB-23" value="primary" style="shape=cylinder3;whiteSpace=wrap;html=1;boundedLbl=1;backgroundOutline=1;size=15;" parent="1" vertex="1">
          <mxGeometry x="915" y="720" width="110" height="80" as="geometry" />
        </mxCell>
        <mxCell id="p9kjgCkocBYD14w4LpJB-24" value="&lt;b&gt;shard2-2&lt;/b&gt;" style="shape=cylinder3;whiteSpace=wrap;html=1;boundedLbl=1;backgroundOutline=1;size=15;" parent="1" vertex="1">
          <mxGeometry x="915" y="670" width="110" height="80" as="geometry" />
        </mxCell>
        <mxCell id="p9kjgCkocBYD14w4LpJB-25" value="secondary" style="shape=cylinder3;whiteSpace=wrap;html=1;boundedLbl=1;backgroundOutline=1;size=15;" parent="1" vertex="1">
          <mxGeometry x="780" y="820" width="110" height="80" as="geometry" />
        </mxCell>
        <mxCell id="p9kjgCkocBYD14w4LpJB-26" value="secondary" style="shape=cylinder3;whiteSpace=wrap;html=1;boundedLbl=1;backgroundOutline=1;size=15;" parent="1" vertex="1">
          <mxGeometry x="780" y="770" width="110" height="80" as="geometry" />
        </mxCell>
        <mxCell id="p9kjgCkocBYD14w4LpJB-27" value="primary" style="shape=cylinder3;whiteSpace=wrap;html=1;boundedLbl=1;backgroundOutline=1;size=15;" parent="1" vertex="1">
          <mxGeometry x="780" y="720" width="110" height="80" as="geometry" />
        </mxCell>
        <mxCell id="p9kjgCkocBYD14w4LpJB-28" value="&lt;b&gt;shard2-1&lt;/b&gt;" style="shape=cylinder3;whiteSpace=wrap;html=1;boundedLbl=1;backgroundOutline=1;size=15;" parent="1" vertex="1">
          <mxGeometry x="780" y="670" width="110" height="80" as="geometry" />
        </mxCell>
        <mxCell id="p9kjgCkocBYD14w4LpJB-29" value="secondary" style="shape=cylinder3;whiteSpace=wrap;html=1;boundedLbl=1;backgroundOutline=1;size=15;" parent="1" vertex="1">
          <mxGeometry x="1050" y="820" width="110" height="80" as="geometry" />
        </mxCell>
        <mxCell id="p9kjgCkocBYD14w4LpJB-30" value="secondary" style="shape=cylinder3;whiteSpace=wrap;html=1;boundedLbl=1;backgroundOutline=1;size=15;" parent="1" vertex="1">
          <mxGeometry x="1050" y="770" width="110" height="80" as="geometry" />
        </mxCell>
        <mxCell id="p9kjgCkocBYD14w4LpJB-31" value="primary" style="shape=cylinder3;whiteSpace=wrap;html=1;boundedLbl=1;backgroundOutline=1;size=15;" parent="1" vertex="1">
          <mxGeometry x="1050" y="720" width="110" height="80" as="geometry" />
        </mxCell>
        <mxCell id="p9kjgCkocBYD14w4LpJB-32" value="&lt;b&gt;shard2-3&lt;/b&gt;" style="shape=cylinder3;whiteSpace=wrap;html=1;boundedLbl=1;backgroundOutline=1;size=15;" parent="1" vertex="1">
          <mxGeometry x="1050" y="670" width="110" height="80" as="geometry" />
        </mxCell>
        <mxCell id="p9kjgCkocBYD14w4LpJB-33" value="&lt;span style=&quot;color: rgba(0, 0, 0, 0.85); font-family: &amp;quot;YS Text&amp;quot;, sans-serif; font-size: 18px; text-align: left; white-space-collapse: preserve-breaks; background-color: rgb(255, 255, 255);&quot;&gt;replicaset 2&lt;/span&gt;" style="text;html=1;align=center;verticalAlign=middle;whiteSpace=wrap;rounded=0;" parent="1" vertex="1">
          <mxGeometry x="900" y="620" width="130" height="30" as="geometry" />
        </mxCell>
        <mxCell id="p_O2uBfT2jUDZnPNE2_V-3" style="edgeStyle=orthogonalEdgeStyle;rounded=0;orthogonalLoop=1;jettySize=auto;html=1;entryX=0.519;entryY=-0.005;entryDx=0;entryDy=0;entryPerimeter=0;" edge="1" parent="1" source="p_O2uBfT2jUDZnPNE2_V-2" target="p9kjgCkocBYD14w4LpJB-18">
          <mxGeometry relative="1" as="geometry">
            <mxPoint x="660" y="520" as="targetPoint" />
          </mxGeometry>
        </mxCell>
        <mxCell id="p_O2uBfT2jUDZnPNE2_V-2" value="&lt;font style=&quot;font-size: 18px;&quot;&gt;redis&lt;/font&gt;" style="rhombus;whiteSpace=wrap;html=1;" vertex="1" parent="1">
          <mxGeometry x="600" y="334" width="120" height="116" as="geometry" />
        </mxCell>
        <mxCell id="p_O2uBfT2jUDZnPNE2_V-4" style="edgeStyle=orthogonalEdgeStyle;rounded=0;orthogonalLoop=1;jettySize=auto;html=1;exitX=0.5;exitY=1;exitDx=0;exitDy=0;entryX=0.523;entryY=0.001;entryDx=0;entryDy=0;entryPerimeter=0;" edge="1" parent="1" source="p_O2uBfT2jUDZnPNE2_V-2" target="p9kjgCkocBYD14w4LpJB-20">
          <mxGeometry relative="1" as="geometry" />
        </mxCell>
      </root>
    </mxGraphModel>
  </diagram>
</mxfile>
